<?xml version="1.0" encoding="UTF-8"?>
<svg width="288px" height="288px" viewBox="0 0 288 288" version="1.1" xmlns="http://www.w3.org/2000/svg" xmlns:xlink="http://www.w3.org/1999/xlink">
    <title>Viewfinder/No Media</title>
    <g id="Symbols" stroke="none" stroke-width="1" fill="none" fill-rule="evenodd">
        <g id="Control/Room/Small" transform="translate(-140.000000, -20.000000)">
            <g id="Viewfinder/No-Media" transform="translate(140.000000, 20.000000)">
                <rect id="You" fill="#000000" x="0" y="0" width="288" height="288" rx="8"></rect>
                <g id="Start-Video" transform="translate(93.176471, 99.952941)" fill="#FFFFFF" fill-rule="nonzero">
                    <path d="M72.7973371,10.8658982 L11.6796836,10.8658982 L3.06236275,0.620434707 C2.42836469,-0.13276149 1.32518401,-0.211323345 0.598552456,0.445852807 C-0.128079096,1.10302896 -0.203870135,2.2465404 0.430127924,2.9997366 L7.04560293,10.8658982 L1.74744837,10.8658982 C1.28789,10.8658982 0.837955898,11.0591853 0.513137158,11.395879 C0.187115386,11.7325726 0,12.1989557 0,12.6753149 L0,75.4200498 C0,75.8964089 0.187115386,76.362792 0.511934126,76.6994857 C0.836752866,77.0361793 1.28668697,77.2294665 1.74624534,77.2294665 L62.8626958,77.2294665 L71.4788137,87.4736829 C72.1128117,88.2268791 73.2159924,88.305441 73.942624,87.6482648 C74.6692555,86.9910887 74.7450465,85.8475772 74.1110485,85.094381 L67.4955735,77.2282194 L72.7949311,77.2282194 C73.2544894,77.2282194 73.7044235,77.0349323 74.0292423,76.6982387 C74.354061,76.361545 74.5411765,75.8951619 74.5411765,75.4188027 L74.5411765,12.6753149 C74.5411765,12.1989557 74.354061,11.7325726 74.0292423,11.394632 C73.7044235,11.0566913 73.2568955,10.8658982 72.7973371,10.8658982 Z M2.92318339,73.1616831 L2.92318339,14.9312064 L9.59994679,14.9312064 L59.9252595,73.1629113 L2.92318339,73.1629113 L2.92318339,73.1616831 Z M64.9413723,73.1616831 L14.615917,14.9312064 L71.6179931,14.9312064 L71.6179931,73.1629113 L64.9413723,73.1629113 L64.9413723,73.1616831 Z" id="Shape"></path>
                    <path d="M107.521253,20.5760764 C106.959837,20.2515923 106.274358,20.2466194 105.709182,20.5648873 L82.2412271,33.733221 C81.6697854,34.0539753 81.3176471,34.6532141 81.3176471,35.3046687 L81.3176471,54.4852816 C81.3176471,55.135493 81.6710386,55.735975 82.2412271,56.0554861 L105.709182,69.2238198 C106.274358,69.5408444 106.959837,69.5371147 107.521253,69.2126307 C108.082669,68.8881466 108.423529,68.2988538 108.423529,67.6536153 L108.423529,22.1350917 C108.423529,21.4898533 108.082669,20.9005604 107.521253,20.5760764 Z M85.8352941,52.5526831 L85.8352941,35.7467822 L105.411765,24.7957219 L105.411765,63.5037433 L85.8352941,52.5526831 Z" id="Shape"></path>
                </g>
            </g>
        </g>
    </g>
</svg>